<svg xmlns="http://www.w3.org/2000/svg" width="28.97" height="28.409" viewBox="0 0 28.97 28.409">
  <path id="search-svgrepo-com" d="M27.806,25.565l-7.858-7.7a10.147,10.147,0,0,0,3.246-7.389C23.194,4.7,18.212,0,12.088,0S.983,4.7.983,10.471,5.965,20.941,12.088,20.941a11.467,11.467,0,0,0,7.078-2.409l7.877,7.724a.552.552,0,0,0,.748.014A.479.479,0,0,0,27.806,25.565ZM12.088,19.944c-5.541,0-10.048-4.25-10.048-9.473S6.548,1,12.088,1s10.048,4.25,10.048,9.473S17.628,19.944,12.088,19.944Z" transform="translate(0.017 1)" fill="#574e4e" stroke="#707070" stroke-width="2"/>
</svg>
