<svg width="22" height="24" viewBox="0 0 22 24" fill="none" xmlns="http://www.w3.org/2000/svg">
<path d="M10.7499 23.9999C10.6183 24.0007 10.4879 23.9755 10.366 23.9257C10.2442 23.8759 10.1334 23.8026 10.0399 23.7099L1.86994 15.5399C1.40431 15.0755 1.03488 14.5237 0.782814 13.9163C0.530749 13.3088 0.401001 12.6576 0.401001 11.9999C0.401001 11.3423 0.530749 10.6911 0.782814 10.0836C1.03488 9.47615 1.40431 8.9244 1.86994 8.45994L10.0399 0.289941C10.2282 0.101637 10.4836 -0.00415039 10.7499 -0.00415039C11.0162 -0.00415039 11.2716 0.101637 11.4599 0.289941C11.6482 0.478245 11.754 0.733639 11.754 0.999941C11.754 1.26624 11.6482 1.52164 11.4599 1.70994L3.28994 9.87994C2.72814 10.4424 2.41258 11.2049 2.41258 11.9999C2.41258 12.7949 2.72814 13.5574 3.28994 14.1199L11.4599 22.2899C11.5537 22.3829 11.6281 22.4935 11.6788 22.6154C11.7296 22.7372 11.7557 22.8679 11.7557 22.9999C11.7557 23.1319 11.7296 23.2627 11.6788 23.3845C11.6281 23.5064 11.5537 23.617 11.4599 23.7099C11.3665 23.8026 11.2557 23.8759 11.1338 23.9257C11.012 23.9755 10.8815 24.0007 10.7499 23.9999Z" fill="#979797"/>
<path d="M20.75 23.9999C20.6184 24.0007 20.4879 23.9755 20.3661 23.9257C20.2443 23.8759 20.1334 23.8026 20.04 23.7099L10.46 14.1199C9.8982 13.5574 9.58264 12.7949 9.58264 11.9999C9.58264 11.2049 9.8982 10.4424 10.46 9.87994L20.04 0.289941C20.2283 0.101637 20.4837 -0.00415039 20.75 -0.00415039C21.0163 -0.00415039 21.2717 0.101637 21.46 0.289941C21.6483 0.478245 21.7541 0.733639 21.7541 0.999941C21.7541 1.26624 21.6483 1.52164 21.46 1.70994L11.87 11.2899C11.7763 11.3829 11.7019 11.4935 11.6511 11.6154C11.6003 11.7372 11.5742 11.8679 11.5742 11.9999C11.5742 12.132 11.6003 12.2627 11.6511 12.3845C11.7019 12.5064 11.7763 12.617 11.87 12.7099L21.46 22.2899C21.5537 22.3829 21.6281 22.4935 21.6789 22.6154C21.7297 22.7372 21.7558 22.8679 21.7558 22.9999C21.7558 23.1319 21.7297 23.2627 21.6789 23.3845C21.6281 23.5064 21.5537 23.617 21.46 23.7099C21.3666 23.8026 21.2557 23.8759 21.1339 23.9257C21.0121 23.9755 20.8816 24.0007 20.75 23.9999Z" fill="#979797"/>
</svg>
