<svg width="25" height="24" viewBox="0 0 25 24" fill="none" xmlns="http://www.w3.org/2000/svg">
<g clip-path="url(#clip0_1201_1244)">
<path d="M21.965 18.363C20.8196 19.7517 19.3205 20.8056 17.6259 21.4132C15.9314 22.0209 14.1043 22.1598 12.3373 21.8154C10.5704 21.471 8.92918 20.6561 7.58689 19.4565C6.24461 18.2569 5.25103 16.7173 4.711 15H15.25C15.5152 15 15.7696 14.8946 15.9571 14.7071C16.1446 14.5196 16.25 14.2652 16.25 14C16.25 13.7348 16.1446 13.4804 15.9571 13.2929C15.7696 13.1053 15.5152 13 15.25 13H4.301C4.233 12.335 4.233 11.6649 4.301 11H15.25C15.5152 11 15.7696 10.8946 15.9571 10.7071C16.1446 10.5195 16.25 10.2652 16.25 9.99998C16.25 9.73476 16.1446 9.48041 15.9571 9.29287C15.7696 9.10534 15.5152 8.99998 15.25 8.99998H4.711C5.25103 7.2827 6.24461 5.74303 7.58689 4.54346C8.92918 3.3439 10.5704 2.52891 12.3373 2.18452C14.1043 1.84012 15.9314 1.97908 17.6259 2.58674C19.3205 3.19439 20.8196 4.24821 21.965 5.63698C22.0486 5.73823 22.1514 5.82201 22.2675 5.88354C22.3835 5.94507 22.5105 5.98314 22.6412 5.99559C22.772 6.00803 22.9039 5.9946 23.0295 5.95606C23.155 5.91752 23.2717 5.85463 23.373 5.77098C23.4742 5.68733 23.558 5.58455 23.6196 5.46852C23.6811 5.35249 23.7192 5.22548 23.7316 5.09473C23.744 4.96399 23.7306 4.83207 23.6921 4.70652C23.6535 4.58096 23.5906 4.46423 23.507 4.36298C22.0996 2.65727 20.248 1.37403 18.1567 0.655173C16.0654 -0.0636831 13.8161 -0.190144 11.6575 0.289774C9.49882 0.769693 7.51496 1.83729 5.92529 3.3745C4.33561 4.91172 3.20206 6.85864 2.65 8.99998H1.25C0.984783 8.99998 0.730429 9.10534 0.542893 9.29287C0.355357 9.48041 0.25 9.73476 0.25 9.99998C0.25 10.2652 0.355357 10.5195 0.542893 10.7071C0.730429 10.8946 0.984783 11 1.25 11H2.301C2.273 11.331 2.25 11.662 2.25 12C2.25 12.338 2.273 12.669 2.301 13H1.25C0.984783 13 0.730429 13.1053 0.542893 13.2929C0.355357 13.4804 0.25 13.7348 0.25 14C0.25 14.2652 0.355357 14.5196 0.542893 14.7071C0.730429 14.8946 0.984783 15 1.25 15H2.65C3.20144 17.1424 4.33492 19.0905 5.92498 20.6286C7.51505 22.1668 9.49969 23.2349 11.6593 23.7149C13.8188 24.1949 16.0691 24.0681 18.161 23.3483C20.2529 22.6286 22.1049 21.3441 23.512 19.637C23.6809 19.4325 23.7617 19.1693 23.7366 18.9052C23.7115 18.6412 23.5825 18.3979 23.378 18.229C23.1735 18.06 22.9103 17.9792 22.6462 18.0044C22.3822 18.0295 22.1389 18.1585 21.97 18.363H21.965Z" fill="#979797"/>
</g>
<defs>
<clipPath id="clip0_1201_1244">
<rect width="24" height="24" fill="white" transform="translate(0.25)"/>
</clipPath>
</defs>
</svg>
