<svg width="21" height="24" viewBox="0 0 21 24" fill="none" xmlns="http://www.w3.org/2000/svg">
<path d="M10.25 0.00695801C8.27142 0.00718134 6.3374 0.594328 4.69266 1.6941C3.04792 2.79386 1.76638 4.35682 1.01022 6.18518C0.254057 8.01354 0.0572647 10.0251 0.444743 11.9654C0.832222 13.9056 1.78656 15.6873 3.18697 17.085L10.25 23.993L17.321 17.077C18.7191 15.6784 19.6712 13.8967 20.0569 11.957C20.4425 10.0174 20.2444 8.00699 19.4876 6.17995C18.7307 4.35291 17.4492 2.79129 15.8049 1.69253C14.1607 0.593758 12.2276 0.00718254 10.25 0.00695801V0.00695801ZM15.915 15.655L10.25 21.2L4.59297 15.663C3.47454 14.5445 2.71277 13.1195 2.40394 11.5682C2.09512 10.0169 2.25309 8.40885 2.8579 6.9473C3.46272 5.48575 4.48722 4.23629 5.80194 3.35683C7.11666 2.47736 8.66258 2.00738 10.2443 2.00626C11.8261 2.00514 13.3727 2.47294 14.6886 3.35055C16.0046 4.22815 17.0309 5.47616 17.6377 6.93686C18.2446 8.39755 18.4049 10.0054 18.0982 11.5571C17.7916 13.1089 17.0318 14.5349 15.915 15.655V15.655ZM14.268 7.42296L11.768 5.51296C11.3317 5.18116 10.7986 5.00151 10.2505 5.00151C9.70233 5.00151 9.16929 5.18116 8.73298 5.51296L6.23297 7.42296C5.92823 7.65684 5.68116 7.95747 5.51075 8.30176C5.34034 8.64604 5.25113 9.02481 5.24997 9.40896V14H15.25V9.40896C15.2488 9.02492 15.1597 8.64626 14.9894 8.302C14.8192 7.95775 14.5724 7.65705 14.268 7.42296V7.42296ZM13.25 12H11.25V9.99996H9.24998V12H7.24998V9.40896C7.24998 9.33134 7.26805 9.25478 7.30276 9.18535C7.33748 9.11592 7.38788 9.05553 7.44997 9.00896L9.94998 7.09996C10.0372 7.03314 10.1441 6.99693 10.254 6.99693C10.3639 6.99693 10.4707 7.03314 10.558 7.09996L13.058 9.00996C13.1201 9.05653 13.1705 9.11692 13.2052 9.18635C13.2399 9.25578 13.258 9.33234 13.258 9.40996L13.25 12Z" fill="#979797"/>
</svg>
