<svg width="25" height="24" viewBox="0 0 25 24" fill="none" xmlns="http://www.w3.org/2000/svg">
<g clip-path="url(#clip0_1201_1224)">
<path d="M17.7778 3.022C17.7778 3.014 17.7778 3.008 17.7778 3V1C17.7778 0.734783 17.6607 0.480429 17.4523 0.292893C17.244 0.105357 16.9614 0 16.6667 0C16.372 0 16.0894 0.105357 15.881 0.292893C15.6726 0.480429 15.5556 0.734783 15.5556 1V2.1C15.1899 2.03317 14.8176 1.99966 14.4444 2H13.3333V1C13.3333 0.734783 13.2163 0.480429 13.0079 0.292893C12.7995 0.105357 12.5169 0 12.2222 0C11.9275 0 11.6449 0.105357 11.4365 0.292893C11.2282 0.480429 11.1111 0.734783 11.1111 1V2H8.88889V1C8.88889 0.734783 8.77183 0.480429 8.56345 0.292893C8.35508 0.105357 8.07246 0 7.77778 0C7.48309 0 7.20048 0.105357 6.9921 0.292893C6.78373 0.480429 6.66667 0.734783 6.66667 1V2H5.55556C5.18239 1.99966 4.81014 2.03317 4.44444 2.1V1C4.44444 0.734783 4.32738 0.480429 4.11901 0.292893C3.91063 0.105357 3.62802 0 3.33333 0C3.03865 0 2.75603 0.105357 2.54766 0.292893C2.33929 0.480429 2.22222 0.734783 2.22222 1V3V3.022C1.5342 3.48437 0.97522 4.08454 0.589517 4.77498C0.203814 5.46543 0.00198259 6.2272 0 7V19C0.00176429 20.3256 0.587647 21.5964 1.62913 22.5338C2.67062 23.4711 4.08267 23.9984 5.55556 24H14.4444C15.9173 23.9984 17.3294 23.4711 18.3709 22.5338C19.4124 21.5964 19.9982 20.3256 20 19V7C19.998 6.2272 19.7962 5.46543 19.4105 4.77498C19.0248 4.08454 18.4658 3.48437 17.7778 3.022V3.022ZM17.7778 19C17.7778 19.7956 17.4266 20.5587 16.8015 21.1213C16.1763 21.6839 15.3285 22 14.4444 22H5.55556C4.6715 22 3.82365 21.6839 3.19853 21.1213C2.57341 20.5587 2.22222 19.7956 2.22222 19V7C2.22222 6.20435 2.57341 5.44129 3.19853 4.87868C3.82365 4.31607 4.6715 4 5.55556 4H14.4444C15.3285 4 16.1763 4.31607 16.8015 4.87868C17.4266 5.44129 17.7778 6.20435 17.7778 7V19ZM15.5556 8C15.5556 8.26521 15.4385 8.51957 15.2301 8.7071C15.0217 8.89464 14.7391 9 14.4444 9H5.55556C5.26087 9 4.97826 8.89464 4.76988 8.7071C4.56151 8.51957 4.44444 8.26521 4.44444 8C4.44444 7.73478 4.56151 7.48043 4.76988 7.29289C4.97826 7.10535 5.26087 7 5.55556 7H14.4444C14.7391 7 15.0217 7.10535 15.2301 7.29289C15.4385 7.48043 15.5556 7.73478 15.5556 8ZM15.5556 12C15.5556 12.2652 15.4385 12.5196 15.2301 12.7071C15.0217 12.8946 14.7391 13 14.4444 13H5.55556C5.26087 13 4.97826 12.8946 4.76988 12.7071C4.56151 12.5196 4.44444 12.2652 4.44444 12C4.44444 11.7348 4.56151 11.4804 4.76988 11.2929C4.97826 11.1054 5.26087 11 5.55556 11H14.4444C14.7391 11 15.0217 11.1054 15.2301 11.2929C15.4385 11.4804 15.5556 11.7348 15.5556 12ZM11.1111 16C11.1111 16.2652 10.994 16.5196 10.7857 16.7071C10.5773 16.8946 10.2947 17 10 17H5.55556C5.26087 17 4.97826 16.8946 4.76988 16.7071C4.56151 16.5196 4.44444 16.2652 4.44444 16C4.44444 15.7348 4.56151 15.4804 4.76988 15.2929C4.97826 15.1054 5.26087 15 5.55556 15H10C10.2947 15 10.5773 15.1054 10.7857 15.2929C10.994 15.4804 11.1111 15.7348 11.1111 16Z" fill="#979797"/>
</g>
<defs>
<clipPath id="clip0_1201_1224">
<rect width="24" height="24" fill="white" transform="translate(0.25)"/>
</clipPath>
</defs>
</svg>
