<svg width="38" height="36" xmlns="http://www.w3.org/2000/svg" xmlns:xlink="http://www.w3.org/1999/xlink" xmlns:svgjs="http://svgjs.com/svgjs" viewBox="0 0.19 38 35.62" fill="#707070" stroke-miterlimit="100" stroke="#707070"><svg xmlns="http://www.w3.org/2000/svg" width="38" height="36" viewBox="0.657 0.522 37.187 34.858"><path paint-order="stroke fill markers" fill-rule="evenodd" d="M37.29 35.379l-.95-1.595c-7.298-12.26-17.285-11.509-19.729-11.112v9.663L.657 16.353 16.611.522v9.512h.244c8.866 0 12.957 3.728 13.133 3.892 9.761 8.12 7.677 19.516 7.655 19.63l-.354 1.823zM18.722 21.127c4.107 0 11.672 1.362 17.702 10.16.09-3.45-.635-10.692-7.373-16.3-.07-.062-4.204-3.798-13.127-3.523l-.73.021V3.924L2.663 16.357l12.532 12.554v-7.376l.538-.134c.038-.01 1.178-.274 2.99-.274z"/></svg></svg>