<svg width="26" height="37" xmlns="http://www.w3.org/2000/svg" xmlns:xlink="http://www.w3.org/1999/xlink" xmlns:svgjs="http://svgjs.com/svgjs" viewBox="141 768 26 37"><svg width="26" height="37" xmlns="http://www.w3.org/2000/svg" xmlns:xlink="http://www.w3.org/1999/xlink" xmlns:svgjs="http://svgjs.com/svgjs" viewBox="0 0.072 26 36.855" fill="#707070" stroke-miterlimit="100" stroke="#707070" x="141" y="768"><svg xmlns="http://www.w3.org/2000/svg" xmlns:xlink="http://www.w3.org/1999/xlink" width="26" height="37" viewBox="0.833 0.522 25.146 35.645"><path paint-order="stroke fill markers" fill-rule="evenodd" d="M13.406.522C6.473.522.833 6.162.833 13.094c0 8.44 11.527 22.23 12.018 22.814a.725.725 0 0 0 .552.258h.003a.725.725 0 0 0 .55-.253c.491-.574 12.023-14.137 12.023-22.819 0-6.932-5.64-12.572-12.573-12.572zm.004 33.777C11.095 31.42 2.284 20.005 2.284 13.094c0-6.132 4.989-11.122 11.122-11.122 6.132 0 11.122 4.99 11.122 11.122 0 7.108-8.796 18.36-11.118 21.205z"/></svg></svg><svg width="11" height="12" xmlns="http://www.w3.org/2000/svg" xmlns:xlink="http://www.w3.org/1999/xlink" xmlns:svgjs="http://svgjs.com/svgjs" viewBox="0 0.5 11 11" fill="#707070" stroke-miterlimit="100" stroke="#707070" x="149" y="775"><svg xmlns="http://www.w3.org/2000/svg" width="11" height="12" viewBox="0.06 0.513 10.691 10.691"><path paint-order="stroke fill markers" fill-rule="evenodd" d="M5.406.513A5.351 5.351 0 0 0 .06 5.86a5.351 5.351 0 0 0 5.346 5.345 5.351 5.351 0 0 0 5.345-5.345A5.351 5.351 0 0 0 5.406.513zm0 9.24A3.899 3.899 0 0 1 1.51 5.86a3.899 3.899 0 0 1 3.895-3.895A3.899 3.899 0 0 1 9.3 5.859a3.9 3.9 0 0 1-3.894 3.894z"/></svg></svg></svg>