<svg width="314" height="76" viewBox="0 0 314 76" fill="none" xmlns="http://www.w3.org/2000/svg">
<path d="M61.25 50C61.2486 56.2986 58.746 62.3386 54.2923 66.7923C49.8386 71.246 43.7986 73.7486 37.5 73.75V26.25C43.7986 26.2514 49.8386 28.754 54.2923 33.2077C58.746 37.6614 61.2486 43.7014 61.25 50Z" fill="#F86070"/>
<path d="M13.75 50C13.75 56.2989 16.2522 62.3397 20.7062 66.7937C25.1602 71.2477 31.2011 73.75 37.5 73.75V26.25C31.2011 26.25 25.1602 28.7523 20.7062 33.2063C16.2522 37.6603 13.75 43.7011 13.75 50Z" fill="white"/>
<path d="M62.7274 37.5834C66.0586 34.6694 68.9317 31.27 71.25 27.5C64.0083 15.9753 52.2751 8.75 36.8863 8.75C21.4977 8.75 10.9917 15.9753 3.75 27.5C6.88806 32.5829 11.1209 36.9014 16.1399 40.1409C18.0274 35.9954 21.0685 32.4814 24.8998 30.018C28.7311 27.5549 33.1906 26.2466 37.7454 26.25C42.3003 26.2534 46.7577 27.568 50.5854 30.0369C54.4131 32.5057 57.4489 36.0246 59.3303 40.1726C60.5129 39.3771 61.6471 38.5126 62.7274 37.5834Z" fill="white"/>
<path d="M21.685 26.25C21.1922 28.3031 21.1172 30.4343 21.4646 32.5171C25.8325 28.4874 31.5574 26.25 37.5003 26.25C43.4429 26.25 49.1677 28.4874 53.5357 32.5171C54.1531 28.592 53.3109 24.5769 51.1674 21.2312C49.0243 17.8856 45.7291 15.4415 41.9054 14.3615C38.0817 13.2816 33.9949 13.6406 30.418 15.3707C26.8414 17.1007 24.0227 20.0819 22.4956 23.7499" fill="#323232"/>
<path d="M46 22.5C47.3806 22.5 48.5 21.3807 48.5 20C48.5 18.6193 47.3806 17.5 46 17.5C44.6194 17.5 43.5 18.6193 43.5 20C43.5 21.3807 44.6194 22.5 46 22.5Z" fill="#5358A1"/>
<path d="M72.0812 26.8346C70.144 23.7341 67.818 20.8939 65.1603 18.3832L70.8215 13.4424L69.1786 11.5576L63.272 16.7126C60.414 14.3487 57.2337 12.4042 53.8269 10.9376L57.1412 4.30911L54.9049 3.19094L51.4932 10.0143C47.3937 8.5574 43.0972 7.72997 38.75 7.5602V0H36.25V7.51151C31.7129 7.51337 27.2072 8.2668 22.9163 9.74126L19.6412 3.19089L17.4048 4.30906L20.5771 10.6537C17.4089 12.0208 14.4518 13.8328 11.7953 16.0351L5.74957 11.5003L4.25057 13.4997L9.88143 17.7234C7.031 20.432 4.53854 23.4939 2.46466 26.8346C2.33963 27.034 2.27332 27.2646 2.27332 27.5C2.27332 27.7354 2.33963 27.966 2.46466 28.1654C5.51546 33.0926 9.56526 37.3257 14.3528 40.5914C12.8038 44.3874 12.2121 48.506 12.6298 52.5846C13.0475 56.6629 14.4618 60.5763 16.7482 63.9791C19.0345 67.3823 22.1227 70.1709 25.7407 72.0994C29.3586 74.0277 33.3955 75.0369 37.4952 75.0374C41.5949 75.0383 45.632 74.0309 49.2506 72.1037C52.8695 70.1769 55.9586 67.3894 58.2463 63.9871C60.534 60.5849 61.9497 56.6723 62.3689 52.594C62.7883 48.5157 62.198 44.3969 60.6506 40.6003C61.5597 39.9509 62.4566 39.2683 63.3143 38.5314C66.7386 35.534 69.6937 32.0397 72.0815 28.1654C72.2063 27.966 72.2726 27.7354 72.2726 27.5C72.2726 27.2646 72.2063 27.034 72.0812 26.8346ZM15.0634 51.25H23.7837C23.8553 55.3017 24.5252 59.3203 25.7719 63.176C23.756 63.418 21.8249 63.728 19.9882 64.0946C17.0384 60.4366 15.3153 55.9426 15.0634 51.25ZM25.7765 36.8243C24.5285 40.6797 23.857 44.6983 23.7837 48.75H15.0634C15.3244 44.056 17.0577 39.5637 20.0172 35.9111C21.8468 36.2754 23.7697 36.5837 25.7765 36.8243ZM22.0038 33.7434C24.3421 31.5069 27.1352 29.8011 30.1926 28.7423C28.7372 30.4357 27.5583 32.3486 26.7 34.4103C25.0813 34.228 23.5097 34.0071 22.0038 33.7434ZM21.9901 66.2589C23.4966 65.9943 25.0694 65.7734 26.6892 65.5909C27.5503 67.6531 28.7329 69.5657 30.1926 71.2577C27.1306 70.2011 24.3327 68.496 21.9901 66.2589ZM36.25 72.344C33.5743 71.7203 31.1557 69.1251 29.3643 65.3323C31.5966 65.1491 33.9009 65.0423 36.25 65.0143V72.344ZM36.25 62.5143C33.554 62.546 30.9095 62.6763 28.3629 62.9069C27.0692 59.1526 26.3675 55.22 26.2829 51.25H36.25V62.5143ZM36.25 48.75H26.2829C26.3717 44.7797 27.0777 40.8474 28.3752 37.094C30.918 37.324 33.5586 37.454 36.25 37.4857V48.75ZM36.25 34.9857C33.9006 34.9577 31.596 34.8509 29.3635 34.6677C31.152 30.8734 33.5735 28.28 36.25 27.656V34.9857ZM38.75 72.344V65.0143C41.0992 65.0423 43.4037 65.1491 45.6357 65.3323C43.8443 69.1251 41.4257 71.7203 38.75 72.344ZM45.6366 34.6677C43.404 34.8506 41.0995 34.9574 38.75 34.9857V27.656C41.4266 28.28 43.848 30.8734 45.6366 34.6677ZM44.8075 28.7423C47.8649 29.8011 50.658 31.5069 52.9963 33.7434C51.4906 34.0071 49.9189 34.228 48.3003 34.4103C47.4417 32.3486 46.2629 30.4357 44.8075 28.7423ZM46.6249 37.094C47.9226 40.8474 48.6283 44.7797 48.7172 48.75H38.75V37.4857C41.4417 37.4543 44.082 37.324 46.6249 37.094ZM48.7172 51.25C48.6326 55.22 47.9309 59.1526 46.6372 62.9069C44.0906 62.6763 41.446 62.546 38.75 62.5143V51.25H48.7172ZM44.8075 71.2577C46.2672 69.5657 47.4497 67.6531 48.3109 65.5909C49.9306 65.7734 51.5035 65.9943 53.01 66.2589C50.6675 68.496 47.8695 70.2011 44.8075 71.2577ZM55.0117 64.0946C53.1752 63.728 51.244 63.418 49.2283 63.176C50.4749 59.3203 51.1449 55.3017 51.2163 51.25H59.9366C59.6849 55.9426 57.9617 60.4366 55.0117 64.0946ZM51.2163 48.75C51.1432 44.6983 50.4715 40.6797 49.2237 36.8243C51.2306 36.5837 53.1532 36.2754 54.9829 35.9111C57.9423 39.5637 59.6757 44.056 59.9366 48.75H51.2163ZM61.6857 36.6346C61.0037 37.2209 60.2943 37.7686 59.5763 38.2963C58.3383 35.9771 56.7443 33.8666 54.852 32.0417C54.9426 31.3649 54.992 30.6829 55 30C54.9995 25.9542 53.5972 22.0335 51.032 18.905C48.4666 15.7764 44.8966 13.6332 40.9295 12.8398C36.9623 12.0465 32.8426 12.652 29.2715 14.5534C25.7003 16.4548 22.8981 19.5346 21.3416 23.269L23.6487 24.231C24.4478 22.3087 25.6386 20.5741 27.1455 19.1378C28.652 17.7014 30.4417 16.5948 32.3997 15.8886C34.358 15.1823 36.442 14.8919 38.5186 15.0359C40.5955 15.1799 42.6192 15.755 44.4612 16.7247C43.932 17.0124 43.4803 17.4236 43.144 17.9234C42.808 18.4232 42.5977 18.9968 42.5309 19.5954C42.464 20.194 42.5426 20.7999 42.7603 21.3615C42.978 21.9231 43.328 22.4238 43.7806 22.8211C44.2335 23.2184 44.7755 23.5005 45.3606 23.6433C45.9457 23.7861 46.5566 23.7855 47.1415 23.6416C47.7263 23.4976 48.2677 23.2145 48.7195 22.8163C49.1715 22.4182 49.5206 21.9167 49.7372 21.3547C51.5346 23.8791 52.5003 26.9011 52.5 30L52.498 30.0457C48.1835 26.772 42.916 25 37.5 25C32.084 25 26.8169 26.772 22.5021 30.0457L22.5001 30C22.4996 28.834 22.6344 27.6717 22.9017 26.5369L20.4676 25.9631C20.1564 27.2863 19.9995 28.6409 20.0001 30C20.008 30.6829 20.0575 31.3649 20.1481 32.0417C18.2548 33.8677 16.6599 35.9794 15.4219 38.3003C11.2822 35.41 7.74486 31.7411 5.0074 27.4989C12.6478 15.7263 23.0091 10 36.6589 10C50.5066 10 62.1509 16.2073 69.5386 27.5011C67.3677 30.9029 64.7235 33.978 61.6857 36.6346ZM47.5 20C47.5 20.2472 47.4269 20.4889 47.2895 20.6945C47.152 20.9 46.9569 21.0602 46.7283 21.1549C46.5 21.2495 46.2486 21.2742 46.0063 21.226C45.7637 21.1777 45.5409 21.0587 45.3663 20.8839C45.1915 20.7091 45.0723 20.4863 45.024 20.2439C44.9757 20.0014 45.0006 19.7501 45.0952 19.5217C45.1897 19.2932 45.35 19.098 45.5555 18.9607C45.7612 18.8233 46.0029 18.75 46.25 18.75C46.5815 18.7502 46.8995 18.882 47.1337 19.1164C47.368 19.3507 47.4997 19.6685 47.5 20Z" fill="#404A69"/>
<path d="M2.5 67.5H5V70H2.5V67.5Z" fill="#FCCC38"/>
<path d="M2.5 72.5H5V75H2.5V72.5Z" fill="#FCCC38"/>
<path d="M5 70H7.5V72.5H5V70Z" fill="#FCCC38"/>
<path d="M0 70H2.5V72.5H0V70Z" fill="#FCCC38"/>
<path d="M70 67.5H72.5V70H70V67.5Z" fill="#FCCC38"/>
<path d="M70 72.5H72.5V75H70V72.5Z" fill="#FCCC38"/>
<path d="M72.5 70H75V72.5H72.5V70Z" fill="#FCCC38"/>
<path d="M67.5 70H70V72.5H67.5V70Z" fill="#FCCC38"/>
<path d="M85.9752 28.2717L93.3752 28.3117C97.2417 28.3117 100.642 29.7117 103.575 32.5117C106.508 35.2852 107.975 38.7117 107.975 42.7917C107.975 46.8452 106.535 50.3252 103.655 53.2317C100.802 56.1386 97.3352 57.5917 93.2552 57.5917H85.9352C84.3083 57.5917 83.2952 57.2586 82.8952 56.5917C82.5752 56.0317 82.4152 55.1786 82.4152 54.0317V31.7917C82.4152 31.1517 82.4283 30.6852 82.4552 30.3917C82.5083 30.0986 82.6417 29.7517 82.8552 29.3517C83.2283 28.6317 84.2683 28.2717 85.9752 28.2717ZM93.3752 50.5117C95.2952 50.5117 97.0283 49.8052 98.5752 48.3917C100.122 46.9517 100.895 45.1517 100.895 42.9917C100.895 40.8317 100.135 39.0317 98.6152 37.5917C97.1217 36.1252 95.3617 35.3917 93.3352 35.3917H89.4952V50.5117H93.3752ZM110.579 40.0717C110.579 39.4586 110.593 39.0052 110.619 38.7117C110.673 38.3917 110.793 38.0317 110.979 37.6317C111.353 36.9386 112.393 36.5917 114.099 36.5917C115.379 36.5917 116.286 36.8186 116.819 37.2717C117.273 37.6452 117.513 38.2186 117.539 38.9917C117.566 39.2586 117.579 39.6452 117.579 40.1517V54.1517C117.579 54.7652 117.553 55.2317 117.499 55.5517C117.473 55.8452 117.353 56.1917 117.139 56.5917C116.793 57.2852 115.766 57.6317 114.059 57.6317C112.379 57.6317 111.353 57.2717 110.979 56.5517C110.793 56.1517 110.673 55.8052 110.619 55.5117C110.593 55.2186 110.579 54.7517 110.579 54.1117V40.0717ZM117.139 32.6717C116.953 33.0452 116.606 33.3117 116.099 33.4717C115.593 33.6317 114.913 33.7117 114.059 33.7117C113.233 33.7117 112.566 33.6317 112.059 33.4717C111.553 33.3117 111.193 33.0317 110.979 32.6317C110.793 32.2317 110.673 31.8852 110.619 31.5917C110.593 31.2717 110.579 30.8052 110.579 30.1917C110.579 29.5786 110.593 29.1252 110.619 28.8317C110.673 28.5117 110.793 28.1652 110.979 27.7917C111.353 27.0717 112.393 26.7117 114.099 26.7117C115.779 26.7117 116.793 27.0717 117.139 27.7917C117.353 28.1917 117.473 28.5517 117.499 28.8717C117.553 29.1652 117.579 29.6186 117.579 30.2317C117.579 30.8452 117.553 31.3117 117.499 31.6317C117.473 31.9252 117.353 32.2717 117.139 32.6717ZM120.935 55.7517C120.428 55.4317 120.175 54.9252 120.175 54.2317C120.175 53.5386 120.681 52.4852 121.695 51.0717C121.988 50.6186 122.455 50.3917 123.095 50.3917C123.761 50.3917 124.655 50.7252 125.775 51.3917C126.895 52.0317 127.908 52.3517 128.815 52.3517C130.441 52.3517 131.255 52.0317 131.255 51.3917C131.255 50.8852 130.361 50.5117 128.575 50.2717C126.895 50.0317 125.228 49.4052 123.575 48.3917C122.801 47.9117 122.161 47.1652 121.655 46.1517C121.148 45.1117 120.895 43.8852 120.895 42.4717C120.895 38.2586 123.788 36.1517 129.575 36.1517C131.468 36.1517 133.415 36.6052 135.415 37.5117C136.348 37.9386 136.815 38.4717 136.815 39.1117C136.815 39.7517 136.521 40.5386 135.935 41.4717C135.348 42.4052 134.748 42.8717 134.135 42.8717C133.815 42.8717 133.215 42.6717 132.335 42.2717C131.481 41.8717 130.548 41.6717 129.535 41.6717C127.961 41.6717 127.175 41.9652 127.175 42.5517C127.175 43.3517 128.081 43.8717 129.895 44.1117C131.655 44.2986 133.361 44.8052 135.015 45.6317C135.788 46.0052 136.428 46.6586 136.935 47.5917C137.468 48.4986 137.735 49.6452 137.735 51.0317C137.735 52.4186 137.468 53.6052 136.935 54.5917C136.428 55.5517 135.708 56.2717 134.775 56.7517C133.068 57.5786 130.921 57.9917 128.335 57.9917C125.775 57.9917 123.308 57.2452 120.935 55.7517ZM146.945 47.1117C146.945 48.2317 147.318 49.1117 148.065 49.7517C148.811 50.3652 149.598 50.6717 150.425 50.6717C151.278 50.6717 152.065 50.4317 152.785 49.9517C153.531 49.4452 154.131 49.1917 154.585 49.1917C155.385 49.1917 156.358 49.8986 157.505 51.3117C158.118 52.0852 158.425 52.7786 158.425 53.3917C158.425 54.4052 157.691 55.3517 156.225 56.2317C154.705 57.2986 152.838 57.8317 150.625 57.8317C148.145 57.8317 145.758 56.9386 143.465 55.1517C142.371 54.2986 141.478 53.1652 140.785 51.7517C140.091 50.3117 139.745 48.7386 139.745 47.0317C139.745 45.2986 140.091 43.7386 140.785 42.3517C141.478 40.9386 142.371 39.8052 143.465 38.9517C145.678 37.1917 148.038 36.3117 150.545 36.3117C151.558 36.3117 152.545 36.4586 153.505 36.7517C154.465 37.0186 155.171 37.2852 155.625 37.5517L156.265 37.9517C156.745 38.2717 157.118 38.5252 157.385 38.7117C158.078 39.2452 158.425 39.8586 158.425 40.5517C158.425 41.2186 158.145 41.9786 157.585 42.8317C156.625 44.2986 155.705 45.0317 154.825 45.0317C154.318 45.0317 153.598 44.7386 152.665 44.1517C152.185 43.6986 151.491 43.4717 150.585 43.4717C149.705 43.4717 148.878 43.7917 148.105 44.4317C147.331 45.0717 146.945 45.9652 146.945 47.1117ZM160.409 47.1117C160.409 43.9117 161.529 41.2717 163.769 39.1917C166.009 37.1117 168.569 36.0717 171.449 36.0717C174.329 36.0717 176.875 37.1117 179.089 39.1917C181.302 41.2452 182.409 43.8717 182.409 47.0717C182.409 49.2852 181.835 51.2586 180.689 52.9917C179.542 54.6986 178.142 55.9652 176.489 56.7917C174.862 57.5917 173.169 57.9917 171.409 57.9917C169.649 57.9917 167.942 57.5652 166.289 56.7117C164.635 55.8317 163.235 54.5517 162.089 52.8717C160.969 51.1652 160.409 49.2452 160.409 47.1117ZM168.769 49.9917C169.622 50.6317 170.489 50.9517 171.369 50.9517C172.249 50.9517 173.129 50.6186 174.009 49.9517C174.889 49.2852 175.329 48.2986 175.329 46.9917C175.329 45.6852 174.915 44.7117 174.089 44.0717C173.262 43.4317 172.369 43.1117 171.409 43.1117C170.449 43.1117 169.555 43.4452 168.729 44.1117C167.902 44.7786 167.489 45.7652 167.489 47.0717C167.489 48.3517 167.915 49.3252 168.769 49.9917ZM205.022 37.0317C206.409 37.8586 207.102 38.7386 207.102 39.6717C207.102 40.2052 206.836 40.9386 206.302 41.8717L198.022 56.0717C197.756 56.5252 197.329 56.9386 196.742 57.3117C196.156 57.6586 195.569 57.8317 194.982 57.8317C194.422 57.8317 193.876 57.6986 193.342 57.4317C192.836 57.1386 192.476 56.8452 192.262 56.5517L191.902 56.1117L183.582 41.8717C183.049 40.9917 182.782 40.2717 182.782 39.7117C182.782 38.7517 183.476 37.8586 184.862 37.0317C185.876 36.4452 186.676 36.1517 187.262 36.1517C187.849 36.1517 188.302 36.3386 188.622 36.7117C188.969 37.0586 189.329 37.5917 189.702 38.3117L194.942 48.3917L200.182 38.3117C200.476 37.8052 200.689 37.4452 200.822 37.2317C200.982 36.9917 201.222 36.7652 201.542 36.5517C201.862 36.3117 202.289 36.1917 202.822 36.1917C203.356 36.1917 204.089 36.4717 205.022 37.0317ZM228.399 44.5917C228.399 46.2186 227.986 47.4317 227.159 48.2317C226.359 49.0052 225.466 49.3917 224.479 49.3917H214.999C214.999 50.1386 215.439 50.7652 216.319 51.2717C217.199 51.7786 218.079 52.0317 218.959 52.0317C220.506 52.0317 221.719 51.8717 222.599 51.5517L223.039 51.3917C223.679 51.0986 224.213 50.9517 224.639 50.9517C225.493 50.9517 226.226 51.5517 226.839 52.7517C227.186 53.4717 227.359 54.0852 227.359 54.5917C227.359 56.9652 224.519 58.1517 218.839 58.1517C216.866 58.1517 215.106 57.8186 213.559 57.1517C212.039 56.4586 210.853 55.5517 209.999 54.4317C208.319 52.2717 207.479 49.8586 207.479 47.1917C207.479 43.8317 208.559 41.1517 210.719 39.1517C212.906 37.1252 215.626 36.1117 218.879 36.1117C222.586 36.1117 225.306 37.4186 227.039 40.0317C227.946 41.4186 228.399 42.9386 228.399 44.5917ZM219.959 45.7517C220.973 45.7517 221.479 45.3252 221.479 44.4717C221.479 43.8586 221.239 43.3652 220.759 42.9917C220.306 42.6186 219.639 42.4317 218.759 42.4317C217.906 42.4317 217.053 42.7917 216.199 43.5117C215.346 44.2052 214.919 44.9517 214.919 45.7517H219.959ZM245.329 36.7917C245.835 36.9517 246.249 37.2317 246.569 37.6317C246.915 38.0052 247.089 38.6186 247.089 39.4717C247.089 40.3252 246.835 41.2586 246.329 42.2717C245.822 43.2852 245.089 43.7917 244.129 43.7917C243.649 43.7917 243.182 43.6852 242.729 43.4717C242.302 43.2586 241.729 43.1517 241.009 43.1517C240.289 43.1517 239.609 43.4052 238.969 43.9117C238.355 44.4186 238.049 45.0317 238.049 45.7517V54.1517C238.049 54.7652 238.022 55.2317 237.969 55.5517C237.942 55.8452 237.822 56.1917 237.609 56.5917C237.209 57.2852 236.169 57.6317 234.489 57.6317C233.209 57.6317 232.289 57.4052 231.729 56.9517C231.302 56.5786 231.062 56.0052 231.009 55.2317C231.009 54.9652 231.009 54.5786 231.009 54.0717V40.0317C231.009 39.4186 231.022 38.9652 231.049 38.6717C231.102 38.3517 231.222 38.0052 231.409 37.6317C231.782 36.9117 232.822 36.5517 234.529 36.5517C236.129 36.5517 237.129 36.8586 237.529 37.4717C237.822 37.8986 237.969 38.3386 237.969 38.7917C238.102 38.6052 238.289 38.3786 238.529 38.1117C238.795 37.8452 239.342 37.4852 240.169 37.0317C240.995 36.5786 241.715 36.3517 242.329 36.3517C242.969 36.3517 243.502 36.3917 243.929 36.4717C244.355 36.5252 244.822 36.6317 245.329 36.7917ZM266.287 39.3517C267.541 37.4586 269.047 36.5117 270.807 36.5117C273.527 36.5117 275.554 37.6717 276.887 39.9917C277.181 39.5917 277.527 39.1786 277.927 38.7517C278.354 38.2986 279.021 37.8186 279.927 37.3117C280.834 36.7786 281.767 36.5117 282.727 36.5117C284.86 36.5117 286.649 37.3386 288.089 38.9917C289.529 40.6186 290.249 43.3252 290.249 47.1117V54.1117C290.249 54.7252 290.22 55.1917 290.169 55.5117C290.14 55.8052 290.02 56.1517 289.809 56.5517C289.46 57.2717 288.434 57.6317 286.729 57.6317C285.049 57.6317 284.02 57.2586 283.649 56.5117C283.46 56.1117 283.34 55.7652 283.289 55.4717C283.26 55.1517 283.249 54.6852 283.249 54.0717V47.0717C283.249 44.7517 282.421 43.5917 280.767 43.5917C279.834 43.5917 279.194 43.8986 278.847 44.5117C278.527 45.1252 278.367 45.9917 278.367 47.1117V54.1117C278.367 54.7517 278.341 55.2186 278.287 55.5117C278.261 55.8052 278.141 56.1517 277.927 56.5517C277.554 57.2717 276.514 57.6317 274.807 57.6317C273.127 57.6317 272.101 57.2586 271.727 56.5117C271.541 56.1117 271.421 55.7652 271.367 55.4717C271.341 55.1517 271.327 54.6852 271.327 54.0717V47.0717C271.327 44.7517 270.501 43.5917 268.847 43.5917C267.247 43.5917 266.447 44.7517 266.447 47.0717V54.1517C266.447 54.7652 266.421 55.2317 266.367 55.5517C266.341 55.8452 266.221 56.1917 266.007 56.5917C265.607 57.2852 264.567 57.6317 262.887 57.6317C261.207 57.6317 260.181 57.2717 259.807 56.5517C259.621 56.1517 259.501 55.8052 259.447 55.5117C259.421 55.2186 259.407 54.7517 259.407 54.1117V40.0317C259.407 39.4186 259.421 38.9652 259.447 38.6717C259.501 38.3517 259.634 38.0052 259.847 37.6317C260.247 36.9117 261.194 36.5517 262.687 36.5517C264.181 36.5517 265.154 36.7917 265.607 37.2717C266.061 37.7517 266.287 38.4452 266.287 39.3517ZM313.751 44.5917C313.751 46.2186 313.337 47.4317 312.511 48.2317C311.711 49.0052 310.817 49.3917 309.831 49.3917H300.351C300.351 50.1386 300.791 50.7652 301.671 51.2717C302.551 51.7786 303.431 52.0317 304.311 52.0317C305.857 52.0317 307.071 51.8717 307.951 51.5517L308.391 51.3917C309.031 51.0986 309.563 50.9517 309.991 50.9517C310.843 50.9517 311.577 51.5517 312.191 52.7517C312.537 53.4717 312.711 54.0852 312.711 54.5917C312.711 56.9652 309.871 58.1517 304.191 58.1517C302.217 58.1517 300.457 57.8186 298.911 57.1517C297.391 56.4586 296.203 55.5517 295.351 54.4317C293.671 52.2717 292.831 49.8586 292.831 47.1917C292.831 43.8317 293.911 41.1517 296.071 39.1517C298.257 37.1252 300.977 36.1117 304.231 36.1117C307.937 36.1117 310.657 37.4186 312.391 40.0317C313.297 41.4186 313.751 42.9386 313.751 44.5917ZM305.311 45.7517C306.323 45.7517 306.831 45.3252 306.831 44.4717C306.831 43.8586 306.591 43.3652 306.111 42.9917C305.657 42.6186 304.991 42.4317 304.111 42.4317C303.257 42.4317 302.403 42.7917 301.551 43.5117C300.697 44.2052 300.271 44.9517 300.271 45.7517H305.311Z" fill="#F86070"/>
</svg>
