<svg width="40" height="31" xmlns="http://www.w3.org/2000/svg" xmlns:xlink="http://www.w3.org/1999/xlink" xmlns:svgjs="http://svgjs.com/svgjs" viewBox="245 771 40 31"><svg width="10" height="3" xmlns="http://www.w3.org/2000/svg" xmlns:xlink="http://www.w3.org/1999/xlink" xmlns:svgjs="http://svgjs.com/svgjs" viewBox="0 0.284 10 2.432" fill="#3F4F8A" x="261" y="781"><svg xmlns="http://www.w3.org/2000/svg" xmlns:xlink="http://www.w3.org/1999/xlink" width="10" height="3" viewBox="0.133 0.192 9.665 2.35"><path paint-order="stroke fill markers" fill-rule="evenodd" d="M8.622.192H1.308a1.175 1.175 0 0 0 0 2.35h7.314a1.175 1.175 0 1 0 0-2.35z"/></svg></svg><svg width="8" height="8" xmlns="http://www.w3.org/2000/svg" xmlns:xlink="http://www.w3.org/1999/xlink" xmlns:svgjs="http://svgjs.com/svgjs" fill="#707070" x="251" y="776"><svg xmlns="http://www.w3.org/2000/svg" xmlns:xlink="http://www.w3.org/1999/xlink" width="8" height="8" viewBox="0.761 0.506 7.036 7.036"><path paint-order="stroke fill markers" fill-rule="evenodd" d="M1.936 7.542h4.686c.649 0 1.175-.526 1.175-1.175V1.68a1.175 1.175 0 0 0-2.35 0v3.51h-3.51a1.175 1.175 0 0 0 0 2.35z"/></svg></svg><svg width="20" height="3" xmlns="http://www.w3.org/2000/svg" xmlns:xlink="http://www.w3.org/1999/xlink" xmlns:svgjs="http://svgjs.com/svgjs" viewBox="0 0.25 20 2.499" fill="#707070" x="251" y="787"><svg xmlns="http://www.w3.org/2000/svg" xmlns:xlink="http://www.w3.org/1999/xlink" width="20" height="3" viewBox="0.99 0.042 18.807 2.35"><path paint-order="stroke fill markers" fill-rule="evenodd" d="M18.622.042H2.165a1.175 1.175 0 0 0 0 2.35h16.457a1.175 1.175 0 1 0 0-2.35z"/></svg></svg><svg width="40" height="31" xmlns="http://www.w3.org/2000/svg" xmlns:xlink="http://www.w3.org/1999/xlink" xmlns:svgjs="http://svgjs.com/svgjs" viewBox="0 0.178 40 30.643" fill="#707070" stroke-miterlimit="100" stroke="#707070" x="245" y="771"><svg xmlns="http://www.w3.org/2000/svg" xmlns:xlink="http://www.w3.org/1999/xlink" width="40" height="31" viewBox="0.143 0.332 39.191 30.023"><path paint-order="stroke fill markers" fill-rule="evenodd" d="M36.088 7.25a1.175 1.175 0 0 0 0 2.35c.494 0 .895.401.895.894V25.72a2.287 2.287 0 0 1-2.283 2.284 2.287 2.287 0 0 1-2.284-2.284V3.576A3.248 3.248 0 0 0 29.17.332H3.386A3.247 3.247 0 0 0 .143 3.576V27.11a3.246 3.246 0 0 0 3.123 3.24c.04.003.08.005.12.005H34.7a4.64 4.64 0 0 0 4.634-4.634V10.494a3.248 3.248 0 0 0-3.246-3.244zM2.493 27.11V3.576c0-.493.4-.894.893-.894H29.17c.494 0 .895.401.895.894V25.72c0 .83.22 1.61.605 2.284H3.386a.895.895 0 0 1-.893-.895z"/></svg></svg><svg width="20" height="4" xmlns="http://www.w3.org/2000/svg" xmlns:xlink="http://www.w3.org/1999/xlink" xmlns:svgjs="http://svgjs.com/svgjs" viewBox="0 0.75 20 2.499" fill="#707070" x="251" y="792"><svg xmlns="http://www.w3.org/2000/svg" width="20" height="4" viewBox="0.99 0.891 18.807 2.35"><path paint-order="stroke fill markers" fill-rule="evenodd" d="M18.622.891H2.165a1.175 1.175 0 0 0 0 2.35h16.457a1.175 1.175 0 0 0 0-2.35z"/></svg></svg></svg>