<svg width="34" height="23" xmlns="http://www.w3.org/2000/svg" xmlns:xlink="http://www.w3.org/1999/xlink" xmlns:svgjs="http://svgjs.com/svgjs" viewBox="362 775 34 23"><svg width="34" height="4" xmlns="http://www.w3.org/2000/svg" xmlns:xlink="http://www.w3.org/1999/xlink" xmlns:svgjs="http://svgjs.com/svgjs" viewBox="0 0.172 34 3.655" fill="#707070" stroke-miterlimit="100" stroke="#707070" x="362" y="794"><svg xmlns="http://www.w3.org/2000/svg" xmlns:xlink="http://www.w3.org/1999/xlink" width="34" height="4" viewBox="0.498 0.155 32.859 3.532"><path paint-order="stroke fill markers" fill-rule="evenodd" d="M32.33.155H1.525C.958.155.498.947.498 1.921c0 .975.46 1.767 1.027 1.767H32.33c.567 0 1.027-.792 1.027-1.767 0-.975-.46-1.766-1.027-1.766z"/></svg></svg><svg width="34" height="5" xmlns="http://www.w3.org/2000/svg" xmlns:xlink="http://www.w3.org/1999/xlink" xmlns:svgjs="http://svgjs.com/svgjs" viewBox="0 0.672 34 3.655" fill="#707070" stroke-miterlimit="100" stroke="#707070" x="362" y="784"><svg xmlns="http://www.w3.org/2000/svg" xmlns:xlink="http://www.w3.org/1999/xlink" width="34" height="5" viewBox="0.498 0.578 32.859 3.532"><path paint-order="stroke fill markers" fill-rule="evenodd" d="M32.33.578H1.525c-.567 0-1.027.79-1.027 1.766 0 .975.46 1.766 1.027 1.766H32.33c.567 0 1.027-.791 1.027-1.766S32.897.578 32.33.578z"/></svg></svg><svg width="34" height="4" xmlns="http://www.w3.org/2000/svg" xmlns:xlink="http://www.w3.org/1999/xlink" xmlns:svgjs="http://svgjs.com/svgjs" viewBox="0 0.172 34 3.655" fill="#707070" stroke-miterlimit="100" stroke="#707070" x="362" y="775"><svg xmlns="http://www.w3.org/2000/svg" width="34" height="4" viewBox="0.498 0 32.859 3.532"><path paint-order="stroke fill markers" fill-rule="evenodd" d="M1.525 3.532H32.33c.567 0 1.027-.791 1.027-1.766S32.897 0 32.33 0H1.525C.958 0 .498.791.498 1.766s.46 1.766 1.027 1.766z"/></svg></svg></svg>